<svg width="24" height="24" viewBox="0 0 24 24" fill="none" xmlns="http://www.w3.org/2000/svg">
<g clip-path="url(#clip0_97_280)">
<path d="M23.4375 5.25225C23.4375 4.99275 23.3325 4.75725 23.1637 4.587L19.4137 0.837C19.2435 0.6675 19.0095 0.5625 18.75 0.5625C18.4905 0.5625 18.2565 0.6675 18.0863 0.837L2.337 16.5863C2.2275 16.6957 2.145 16.833 2.1 16.9852L2.0985 16.992L0.5985 22.242C0.576 22.3185 0.5625 22.407 0.5625 22.4985C0.5625 23.0168 0.98175 23.4368 1.5 23.4375C1.5945 23.4375 1.686 23.4233 1.77225 23.3978L1.7655 23.3993L6.8565 21.8993C7.011 21.852 7.14375 21.7717 7.25175 21.666L23.16 5.916C23.3317 5.7465 23.4375 5.51175 23.4382 5.2515L23.4375 5.25225ZM6.09975 20.1683L2.8695 21.1193L3.83475 17.7413L15.003 6.573L17.4172 8.96325L6.09975 20.1683ZM18.75 7.64325L16.329 5.24625L18.75 2.82525L21.1717 5.24625L18.75 7.64325Z" fill="#E3B37F"/>
</g>
<defs>
<clipPath id="clip0_97_280">
<rect width="24" height="24" fill="white"/>
</clipPath>
</defs>
</svg>
