<svg width="31" height="48" viewBox="0 0 31 48" fill="none" xmlns="http://www.w3.org/2000/svg">
<path d="M13.1026 0.526441C11.7208 0.670011 9.75266 1.43571 8.65197 2.25525C8.13153 2.63811 7.56323 3.23033 7.22225 3.73282C6.62405 4.61218 6.3728 5.38387 6.3728 6.31707C6.3728 6.94518 6.43861 7.25625 6.6061 7.46562L6.71378 7.60321L7.34788 6.64608C8.07171 5.55735 8.46054 5.09075 9.11258 4.51049C10.2193 3.52943 11.7806 2.73382 13.4017 2.32106C14.5742 2.02195 16.1894 1.89633 17.4157 2.00999C18.1096 2.06981 19.312 2.33302 20.0777 2.59025C20.5563 2.74578 22.6918 3.78068 23.5054 4.25326C23.99 4.53442 24.0797 4.57031 24.0797 4.4746C24.0797 4.25924 21.7706 2.72185 20.4845 2.06981C19.3 1.47759 17.7626 0.921257 16.6918 0.699921C15.639 0.478585 14.2153 0.412782 13.1026 0.526441Z" fill="#E3B37F"/>
<path d="M14.4187 3.09272C13.2343 3.30209 12.5224 3.54137 11.5174 4.05583C10.7099 4.47457 10.0518 4.94715 9.39978 5.59321C8.92122 6.05982 8.16748 6.95114 8.16748 7.04685C8.16748 7.10069 8.43667 7.02293 9.30407 6.71186C10.0877 6.43668 11.1824 5.91625 11.9541 5.46161C13.647 4.46261 15.6929 3.78663 17.6311 3.57726C17.9541 3.54137 18.6062 3.51146 19.0847 3.51146C20.1316 3.51146 20.2094 3.43369 19.3479 3.2303C18.2293 2.96111 15.5613 2.88334 14.4187 3.09272Z" fill="#E3B37F"/>
<path d="M17.7388 4.5643C17.1466 4.63609 15.8484 4.91724 15.2502 5.10269C14.3051 5.38384 13.5513 5.7308 12.5284 6.34097C11.332 7.05284 11.0568 7.1665 8.64007 7.97408C7.12063 8.48255 6.48055 8.72781 6.36091 8.83549C6.25323 8.9312 5.97208 9.47557 5.5653 10.3789C5.03289 11.5693 4.93718 11.8205 4.93718 12.0837C4.9312 13.0588 4.77567 13.4477 3.72282 15.1166C2.80159 16.5763 2.0658 17.8146 2.0658 17.9043C2.0658 18.0479 2.26919 18.0897 3.08275 18.1256C4.03389 18.1675 4.36889 18.2333 4.81754 18.4546C5.20039 18.6461 5.2662 18.8136 5.05682 19.0349C4.92522 19.1785 4.47656 19.3639 4.27317 19.3639C4.10568 19.3639 4.04586 19.5434 4.02791 20.0818L4.00996 20.5723L4.6979 20.8355C5.07477 20.9731 5.50548 21.1107 5.65503 21.1346C6.01993 21.1884 6.12761 21.2542 6.22332 21.4756C6.37886 21.8465 6.28314 21.8704 5.15852 21.7448C4.44665 21.667 4.34496 21.6909 4.27317 21.9541C4.18943 22.2592 4.26121 22.337 4.75772 22.5045C5.48753 22.7497 5.58923 22.9472 5.14057 23.2582C4.91924 23.4078 4.82352 23.5394 4.65004 23.8983C4.26719 24.6999 4.36889 25.2921 4.94915 25.681C5.27218 25.8903 5.6311 25.9023 6.25323 25.7109C7.87437 25.2144 8.99301 24.1555 9.28015 22.8455C9.32801 22.6241 9.39381 21.9482 9.4297 21.338C9.57327 18.7298 9.56131 18.8016 9.74675 18.5563C9.83648 18.4367 10.1595 18.1555 10.4646 17.9342C11.5773 17.1087 11.8943 16.5224 11.9781 15.1346C12.0259 14.333 12.0199 14.321 11.655 14.4287C11.4995 14.4766 10.991 14.5783 10.5244 14.662C9.37587 14.8654 9.01096 14.9671 8.4307 15.2423C7.88035 15.5055 7.31206 15.7149 7.13858 15.7149C7.02492 15.7149 7.02492 15.7089 7.14456 15.5414C7.33599 15.2722 7.39581 15.0748 7.33 14.9073C7.28215 14.7817 7.23429 14.7577 7.0309 14.7577C6.85144 14.7577 6.74974 14.7158 6.63609 14.6082C6.48653 14.4586 5.53539 12.5384 5.53539 12.3828C5.53539 12.1196 6.74974 11.9761 7.52741 12.1495C8.07178 12.2752 8.91525 12.67 9.55533 13.1127C9.98005 13.4058 10.1416 13.4895 10.1416 13.4177C10.1416 13.4058 10.0219 13.2203 9.87836 13.005C9.5314 12.4845 9.34596 11.988 9.38185 11.677C9.39979 11.5454 9.62113 11.0369 9.86639 10.5523C10.1176 10.0618 10.321 9.60119 10.321 9.52343C10.321 9.43369 10.2552 9.332 10.1296 9.24825C9.60917 8.88335 8.98703 8.23729 9.07078 8.15354C9.08275 8.13559 9.32203 8.18345 9.60318 8.24925C10.5723 8.48255 11.7029 8.32103 13.0429 7.75872C14.8794 6.98704 15.334 6.86739 16.5125 6.82552L17.3499 6.79561L16.5723 7.08873C15.4895 7.49551 14.6939 7.88434 13.6171 8.53041C12.5284 9.18843 11.9781 9.42173 11.3858 9.48155C10.8953 9.52941 10.8295 9.60119 11.0389 9.8644C11.3918 10.319 12.2054 10.4148 13.1147 10.1276C13.4676 10.014 13.7906 9.84646 14.2752 9.51744C15.657 8.59023 17.003 8.12961 18.7258 7.99202C20.2871 7.8664 21.8484 8.00997 23.003 8.39282C23.7388 8.6321 24.8455 9.21236 25.2941 9.58325C26.347 10.4566 27.2084 11.9701 27.4895 13.4297C27.5733 13.8843 27.6211 14.0219 27.7348 14.1057C27.8664 14.2074 27.8843 14.2074 27.9501 14.1236C28.1057 13.9143 28.2253 13.1605 28.2552 12.1914C28.2851 11.1206 28.2552 10.8993 27.9561 10.002C27.5793 8.87138 27.0588 8.05782 26.1854 7.20837C24.9591 6.01794 22.9491 4.97108 21.328 4.67198C20.8913 4.58823 18.1814 4.51047 17.7388 4.5643Z" fill="#E3B37F"/>
<path d="M17.6969 9.10469C15.5733 9.49352 14.1735 10.4267 13.3838 11.9821C12.8036 13.1246 12.8634 14.4706 13.5394 15.5892C14.2393 16.7498 15.2203 17.348 16.4227 17.3539C17.3619 17.3599 18.0678 17.0788 18.672 16.4626C19.33 15.7926 19.7308 14.7398 19.6231 13.9561C19.5394 13.3101 18.8036 12.341 18.1755 12.0479C17.7627 11.8564 16.8056 11.8564 16.4526 12.0419C16.1176 12.2273 15.5613 12.8255 15.4656 13.1127C15.3519 13.4477 15.3699 14.0339 15.4955 14.2971C15.7886 14.9252 16.6082 15.1825 17.0568 14.7936L17.2183 14.656L16.9432 14.4287C16.6201 14.1595 16.5125 13.9382 16.5663 13.663C16.6381 13.2802 17.1107 13.005 17.5234 13.1067C17.9422 13.2084 18.2772 13.7228 18.2772 14.2672C18.2772 14.7458 18.1336 15.1226 17.8225 15.4696C17.4277 15.9063 17.1107 16.0439 16.4825 16.0379C16.0459 16.0379 15.9262 16.014 15.657 15.8764C14.0179 15.0209 13.8684 12.8495 15.3579 11.4975C16.4586 10.4925 18.1396 10.4327 19.4137 11.348C20.3769 12.0419 20.7537 12.0179 21.6869 11.1924L22.1356 10.7976L22.6082 10.8275C22.991 10.8514 23.1585 10.8993 23.5174 11.0728C24.0738 11.348 24.4147 11.7248 24.7797 12.4666C25.0488 13.005 25.0608 13.0528 25.0548 13.5194C25.0488 14.5723 24.4447 15.4158 23.4875 15.6969C23.0688 15.8166 22.4167 15.7807 22.0339 15.6072C21.663 15.4457 21.1785 14.985 20.9571 14.5962C20.6819 14.1057 20.652 14.1296 20.676 14.8534C20.6999 15.4337 20.7178 15.5354 20.8674 15.7866C21.0648 16.1276 21.5972 16.5763 22.0279 16.7677C22.8116 17.1206 23.6072 17.0847 24.4566 16.66C25.1326 16.319 25.5812 15.8524 25.9581 15.1107C26.5085 14.016 26.4786 13.1426 25.8445 11.8445C25.5693 11.2762 25.4377 11.0847 25.0788 10.7258C24.1755 9.81655 23.1466 9.31406 21.7468 9.10469C21.011 8.99103 18.319 8.99103 17.6969 9.10469Z" fill="#E3B37F"/>
<path d="M22.1954 12.335C21.9441 12.4247 21.657 12.7059 21.5613 12.9631C21.4536 13.2203 21.4775 13.6331 21.6151 13.8903C21.9561 14.5543 22.6799 14.8175 23.302 14.5005C23.6968 14.3031 23.8404 14.0518 23.8404 13.5553C23.8404 13.0887 23.7746 12.8794 23.5533 12.6401C23.2123 12.2812 22.6919 12.1615 22.1954 12.335Z" fill="#E3B37F"/>
<path d="M7.25221 13.5374C7.17445 13.6152 7.21034 13.8425 7.31802 13.9382C7.49748 14.0997 8.48452 14.333 8.55032 14.2253C8.66398 14.0459 7.40775 13.3819 7.25221 13.5374Z" fill="#E3B37F"/>
<path d="M27.8844 14.8893C27.9023 14.9671 27.9562 15.0927 27.998 15.1765C28.1416 15.4576 28.2194 16.0559 28.1954 16.684C28.1775 17.1984 28.1476 17.354 28.004 17.6411C27.7528 18.1675 27.3759 18.5504 26.8435 18.8076C26.3948 19.0289 26.3769 19.0349 25.7009 19.0349C24.7318 19.0349 24.4208 18.9332 23.9123 18.4487L23.5294 18.0778H23.0927C22.8535 18.0778 22.6321 18.1017 22.6082 18.1256C22.5424 18.1914 22.8834 18.8555 23.2004 19.2742C23.8226 20.0937 24.7199 20.5125 25.8624 20.5065C26.9751 20.5065 27.8724 20.0519 28.5603 19.1426C29.003 18.5563 29.1227 18.1256 29.0927 17.2523C29.0688 16.66 29.0449 16.5284 28.8714 16.1097C28.5903 15.4517 27.7229 14.3869 27.8844 14.8893Z" fill="#E3B37F"/>
<path d="M19.5035 17.0548C19.0907 17.4855 18.0439 18.2752 17.5952 18.4965C17.4277 18.5803 17.1406 18.676 16.9611 18.7059C16.5783 18.7836 15.675 18.8016 15.4835 18.7418C15.3699 18.7059 15.3459 18.7178 15.3459 18.8375C15.3459 19.1007 15.5194 19.6211 15.651 19.7587C15.8544 19.9741 16.3031 20.0997 16.7996 20.0698C17.9601 20.01 19.0728 18.993 19.7128 17.4078C20.0658 16.5284 20.0419 16.4925 19.5035 17.0548Z" fill="#E3B37F"/>
<path d="M21.0348 17.7787C20.5922 18.6939 20.5503 18.8315 20.5503 19.4716C20.5503 20.5484 20.8673 21.2901 21.657 22.0917C22.1654 22.6062 22.644 22.9113 23.302 23.1386C23.6311 23.2523 23.8165 23.2702 24.4984 23.2702C25.2163 23.2702 25.3479 23.2523 25.7068 23.1207C25.9282 23.0369 26.2691 22.8754 26.4546 22.7677C27.0229 22.4327 27.9979 21.3978 27.7407 21.3978C27.7168 21.3978 27.5074 21.4756 27.2801 21.5713C26.6759 21.8225 26.0478 21.9362 25.2342 21.9362C23.978 21.9362 23.3619 21.6909 22.5543 20.8893C21.986 20.327 21.8125 20.0519 21.5613 19.2921C21.3878 18.7956 21.3698 18.658 21.3639 18.006C21.3579 17.5992 21.3399 17.2702 21.322 17.2702C21.298 17.2702 21.1724 17.4975 21.0348 17.7787Z" fill="#E3B37F"/>
<path d="M17.1405 23.007C14.2153 24.1974 12.2412 25.0469 9.87235 26.1356C8.987 26.5424 8.00595 26.985 7.70684 27.1107C7.40176 27.2423 7.15051 27.3739 7.15051 27.4158C7.15051 27.4935 8.49049 28.7557 8.58022 28.7557C8.61013 28.7557 10.1176 28.014 11.9182 27.1107C14.8434 25.6391 16.1954 25.005 19.2522 23.653C19.7368 23.4377 20.2632 23.1864 20.4127 23.1027L20.6819 22.9412L20.4725 22.7198C20.3529 22.6002 20.1974 22.3849 20.1196 22.2353C20.0299 22.0618 19.9342 21.9601 19.8624 21.9541C19.7966 21.9482 18.5703 22.4207 17.1405 23.007Z" fill="#E3B37F"/>
<path d="M25.4975 24.5743C23.2363 25.1725 20.8255 26.0818 18.6062 27.1705C14.7298 29.0788 12.1874 30.7896 9.51942 33.2901C6.27715 36.323 3.96808 39.6012 2.26918 43.6032C1.65901 45.0449 1.04884 46.7198 1.00696 47.0847L0.971069 47.3719L1.11464 47.3001C1.49749 47.0967 1.77865 46.8514 1.92222 46.5942C2.01195 46.4387 2.21534 46.0977 2.37087 45.8345C2.5264 45.5713 2.87336 44.9372 3.14255 44.4287C5.94216 39.1466 8.68194 35.7428 12.5942 32.674C16.1475 29.8923 20.9691 27.4816 25.5633 26.1835L26.4726 25.9262V25.1246C26.4726 24.6879 26.4546 24.329 26.4307 24.335C26.4008 24.335 25.982 24.4427 25.4975 24.5743Z" fill="#E3B37F"/>
<path d="M15.4955 26.6261C14.8076 26.9312 13.2044 27.6849 11.9362 28.3011C10.668 28.9172 9.53141 29.4676 9.41177 29.5154C9.26221 29.5753 9.18445 29.6471 9.18445 29.7188C9.18445 29.8504 9.53739 30.8375 9.59721 30.8734C9.64507 30.9033 12.1216 29.5693 12.654 29.2223C12.8395 29.1087 13.7129 28.5942 14.5982 28.0857C15.4895 27.5773 16.4108 27.0329 16.6501 26.8774L17.0808 26.5962L16.9611 26.4407C16.8953 26.3569 16.8415 26.2373 16.8415 26.1775C16.8415 26.1117 16.8235 26.0638 16.7996 26.0698C16.7697 26.0698 16.1894 26.321 15.4955 26.6261Z" fill="#E3B37F"/>
<path d="M29.7627 28.7617C27.7946 28.9352 26.2034 29.2283 24.349 29.7487C21.6929 30.4965 19.7847 31.2562 17.1705 32.6082C13.5035 34.5045 11.35 36.0897 8.34697 39.0987C6.95913 40.4865 6.01995 41.5573 5.34996 42.5204C5.14059 42.8195 4.64408 43.5075 4.24328 44.0518C3.56133 44.985 2.26322 47.0429 2.32304 47.0967C2.3709 47.1446 3.56731 46.4686 3.84847 46.2353C3.99802 46.1156 4.5364 45.4875 5.05086 44.8475C6.94119 42.4786 8.32902 40.9711 10.0758 39.3918C11.4217 38.1715 12.4028 37.4058 13.8864 36.4187C15.4237 35.3898 16.2074 34.9352 18.008 34.0379C19.6052 33.2363 20.353 32.9073 21.8425 32.3569C24.8754 31.2263 27.4895 30.6281 29.9781 30.5025L30.7498 30.4606L30.8156 29.6231C30.8515 29.1625 30.8694 28.7677 30.8574 28.7378C30.8275 28.6899 30.5404 28.6959 29.7627 28.7617Z" fill="#E3B37F"/>
<path d="M5.61912 32.0578C4.96708 32.6321 4.1954 34.0678 4.38682 34.3549C4.41075 34.3968 4.70985 34.5344 5.05681 34.672C5.79859 34.9591 5.86439 35.001 5.80457 35.0967C5.75671 35.1745 5.326 35.1505 4.327 35.001C4.00995 34.9591 3.48353 34.8993 3.15452 34.8814L2.5623 34.8395L2.49051 35.0429C2.19739 35.8445 2.04784 36.329 1.97605 36.7717L1.88632 37.2742L2.2273 37.6271L2.57426 37.9741L2.93318 37.9382C3.13059 37.9143 3.34594 37.8843 3.41175 37.8664C3.50746 37.8425 3.51344 37.8485 3.4596 37.9083C3.42371 37.9501 2.98104 38.0937 2.47256 38.2373C1.35392 38.5484 0.564289 38.7876 0.462594 38.8594C0.396792 38.9013 0.396792 39.0389 0.48054 39.649C0.600182 40.5823 0.68393 40.8634 1.04285 41.4915L1.32999 42L1.18642 42.4367C1.05482 42.8554 0.994997 43.5314 1.09669 43.5314C1.12062 43.5314 1.27017 43.2263 1.43169 42.8554C2.18543 41.1386 3.28014 39.1286 4.29111 37.6211C4.99699 36.5623 6.43268 34.8455 7.58124 33.6849L8.41274 32.8475L8.15552 32.7697C8.01195 32.7278 7.49151 32.5065 6.995 32.2792C6.49849 32.0518 6.03189 31.8664 5.96608 31.8664C5.8943 31.8664 5.73877 31.9501 5.61912 32.0578Z" fill="#E3B37F"/>
</svg>
