<svg width="500" height="500" viewBox="0 0 500 500" fill="none" xmlns="http://www.w3.org/2000/svg">
<rect width="500" height="500" fill="#262B2C"/>
<path d="M242.522 54.3869C231.007 55.5833 214.606 61.9641 205.434 68.7937C201.097 71.9841 196.361 76.9193 193.519 81.1067C188.534 88.4347 186.441 94.8654 186.441 102.642C186.441 107.876 186.989 110.469 188.385 112.213L189.282 113.36L194.566 105.384C200.598 96.3111 203.838 92.4228 209.272 87.5873C218.495 79.4118 231.505 72.7817 245.015 69.342C254.786 66.8495 268.245 65.8026 278.465 66.7498C284.247 67.2483 294.267 69.4417 300.648 71.5853C304.636 72.8814 322.433 81.5055 329.212 85.4437C333.25 87.7867 333.998 88.0858 333.998 87.2882C333.998 85.4936 314.756 72.682 304.038 67.2483C294.167 62.3131 281.356 57.677 272.433 55.8325C263.659 53.9881 251.795 53.4397 242.522 54.3869Z" fill="#E3B37F"/>
<path d="M253.49 75.7727C243.619 77.5175 237.687 79.5115 229.312 83.7986C222.582 87.2881 217.099 91.2263 211.665 96.6102C207.677 100.499 201.396 107.926 201.396 108.724C201.396 109.172 203.639 108.524 210.867 105.932C217.398 103.639 226.52 99.3021 232.951 95.5135C247.059 87.1884 264.108 81.5553 280.259 79.8106C282.951 79.5115 288.385 79.2622 292.373 79.2622C301.097 79.2622 301.745 78.6142 294.566 76.9193C285.244 74.676 263.011 74.0279 253.49 75.7727Z" fill="#E3B37F"/>
<path d="M281.157 88.0359C276.221 88.6341 265.404 90.9771 260.419 92.5224C252.542 94.8654 246.261 97.7567 237.737 102.841C227.767 108.774 225.474 109.721 205.334 116.451C192.672 120.688 187.338 122.732 186.341 123.629C185.444 124.427 183.101 128.963 179.711 136.491C175.274 146.411 174.477 148.504 174.477 150.698C174.427 158.824 173.131 162.064 164.357 175.972C156.68 188.136 150.548 198.455 150.548 199.202C150.548 200.399 152.243 200.748 159.023 201.047C166.949 201.396 169.741 201.944 173.48 203.789C176.67 205.384 177.218 206.78 175.474 208.624C174.377 209.821 170.638 211.366 168.943 211.366C167.547 211.366 167.049 212.861 166.899 217.348L166.75 221.436L172.483 223.629C175.623 224.776 179.212 225.922 180.459 226.122C183.499 226.57 184.397 227.119 185.194 228.963C186.491 232.054 185.693 232.253 176.321 231.206C170.389 230.558 169.541 230.758 168.943 232.951C168.245 235.494 168.843 236.142 172.981 237.537C179.063 239.581 179.91 241.226 176.171 243.819C174.327 245.065 173.529 246.162 172.084 249.153C168.893 255.832 169.741 260.768 174.576 264.008C177.268 265.753 180.259 265.852 185.444 264.257C198.953 260.12 208.275 251.296 210.668 240.379C211.067 238.534 211.615 232.901 211.914 227.817C213.111 206.082 213.011 206.68 214.556 204.636C215.304 203.639 217.996 201.296 220.538 199.452C229.811 192.572 232.453 187.687 233.151 176.122C233.549 169.442 233.499 169.342 230.459 170.239C229.162 170.638 224.925 171.486 221.037 172.183C211.466 173.878 208.425 174.726 203.589 177.019C199.003 179.212 194.267 180.957 192.822 180.957C191.874 180.957 191.874 180.907 192.871 179.511C194.467 177.268 194.965 175.623 194.417 174.227C194.018 173.18 193.619 172.981 191.924 172.981C190.429 172.981 189.581 172.632 188.634 171.735C187.388 170.489 179.462 154.487 179.462 153.19C179.462 150.997 189.581 149.801 196.062 151.246C200.598 152.293 207.627 155.583 212.961 159.272C216.5 161.715 217.846 162.413 217.846 161.815C217.846 161.715 216.849 160.169 215.653 158.375C212.762 154.038 211.216 149.9 211.515 147.308C211.665 146.211 213.509 141.974 215.553 137.936C217.647 133.848 219.342 130.01 219.342 129.362C219.342 128.614 218.794 127.767 217.747 127.069C213.41 124.028 208.225 118.644 208.923 117.946C209.023 117.797 211.017 118.195 213.36 118.744C221.436 120.688 230.857 119.342 242.024 114.656C257.328 108.225 261.117 107.228 270.937 106.879L277.916 106.63L271.436 109.073C262.413 112.463 255.783 115.703 246.81 121.087C237.737 126.57 233.151 128.514 228.215 129.013C224.128 129.412 223.579 130.01 225.324 132.203C228.265 135.992 235.045 136.79 242.622 134.397C245.563 133.45 248.255 132.054 252.293 129.312C263.809 121.585 275.025 117.747 289.382 116.6C302.393 115.553 315.404 116.75 325.025 119.94C331.157 121.934 340.379 126.77 344.118 129.86C352.891 137.139 360.07 149.751 362.413 161.914C363.111 165.703 363.509 166.849 364.457 167.547C365.553 168.395 365.703 168.395 366.251 167.697C367.547 165.952 368.544 159.671 368.794 151.595C369.043 142.672 368.794 140.828 366.301 133.35C363.161 123.928 358.824 117.149 351.545 110.07C341.326 100.15 324.576 91.4257 311.067 88.9332C307.428 88.2353 284.845 87.5872 281.157 88.0359Z" fill="#E3B37F"/>
<path d="M280.808 125.872C263.111 129.113 251.446 136.889 244.865 149.85C240.03 159.372 240.528 170.588 246.162 179.91C251.994 189.581 260.17 194.566 270.189 194.616C278.016 194.666 283.898 192.323 288.933 187.188C294.417 181.605 297.757 172.832 296.859 166.301C296.162 160.917 290.03 152.841 284.796 150.399C281.356 148.804 273.38 148.804 270.439 150.349C267.647 151.894 263.011 156.879 262.213 159.272C261.266 162.064 261.416 166.949 262.463 169.143C264.905 174.377 271.735 176.52 275.474 173.28L276.82 172.134L274.526 170.239C271.835 167.996 270.937 166.152 271.386 163.858C271.984 160.668 275.922 158.375 279.362 159.222C282.851 160.07 285.643 164.357 285.643 168.893C285.643 172.881 284.447 176.022 281.854 178.913C278.564 182.552 275.922 183.699 270.688 183.649C267.049 183.649 266.052 183.45 263.809 182.303C250.15 175.174 248.903 157.079 261.316 145.813C270.489 137.438 284.497 136.939 295.115 144.566C303.141 150.349 306.281 150.15 314.058 143.27L317.797 139.98L321.735 140.229C324.925 140.429 326.321 140.828 329.312 142.273C333.948 144.566 336.79 147.707 339.831 153.888C342.074 158.375 342.174 158.774 342.124 162.662C342.074 171.436 337.039 178.465 329.063 180.808C325.573 181.805 320.14 181.505 316.949 180.06C313.858 178.714 309.821 174.875 307.976 171.635C305.683 167.547 305.434 167.747 305.633 173.779C305.833 178.614 305.982 179.462 307.228 181.555C308.873 184.397 313.31 188.136 316.899 189.731C323.43 192.672 330.06 192.373 337.139 188.834C342.772 185.992 346.511 182.104 349.651 175.922C354.237 166.8 353.988 159.521 348.704 148.704C346.411 143.968 345.314 142.373 342.323 139.382C334.796 131.805 326.221 127.617 314.556 125.872C308.425 124.925 285.992 124.925 280.808 125.872Z" fill="#E3B37F"/>
<path d="M318.295 152.792C316.201 153.539 313.809 155.882 313.011 158.026C312.114 160.17 312.313 163.609 313.46 165.753C316.301 171.286 322.333 173.48 327.517 170.838C330.808 169.192 332.004 167.099 332.004 162.961C332.004 159.073 331.456 157.328 329.611 155.334C326.77 152.343 322.433 151.346 318.295 152.792Z" fill="#E3B37F"/>
<path d="M193.769 162.812C193.121 163.46 193.42 165.354 194.317 166.152C195.813 167.498 204.038 169.442 204.586 168.544C205.533 167.049 195.065 161.515 193.769 162.812Z" fill="#E3B37F"/>
<path d="M365.703 174.078C365.852 174.726 366.301 175.773 366.65 176.471C367.846 178.814 368.495 183.799 368.295 189.033C368.146 193.32 367.896 194.616 366.7 197.009C364.606 201.396 361.466 204.586 357.029 206.73C353.29 208.574 353.141 208.624 347.508 208.624C339.432 208.624 336.84 207.777 332.602 203.739L329.412 200.648H325.773C323.779 200.648 321.934 200.848 321.735 201.047C321.186 201.595 324.028 207.129 326.67 210.618C331.854 217.448 339.332 220.937 348.853 220.887C358.126 220.887 365.603 217.099 371.336 209.521C375.025 204.636 376.022 201.047 375.773 193.769C375.573 188.834 375.374 187.737 373.928 184.247C371.585 178.764 364.357 169.89 365.703 174.078Z" fill="#E3B37F"/>
<path d="M295.862 192.124C292.423 195.713 283.699 202.293 279.96 204.138C278.564 204.836 276.172 205.633 274.676 205.882C271.486 206.53 263.958 206.68 262.363 206.182C261.416 205.882 261.216 205.982 261.216 206.979C261.216 209.173 262.662 213.51 263.759 214.656C265.454 216.451 269.192 217.498 273.33 217.248C283.001 216.75 292.273 208.275 297.607 195.065C300.548 187.737 300.349 187.438 295.862 192.124Z" fill="#E3B37F"/>
<path d="M308.624 198.156C304.935 205.783 304.586 206.929 304.586 212.263C304.586 221.236 307.228 227.418 313.809 234.098C318.046 238.385 322.034 240.927 327.517 242.822C330.259 243.769 331.805 243.918 337.488 243.918C343.47 243.918 344.566 243.769 347.557 242.672C349.402 241.974 352.243 240.628 353.789 239.731C358.524 236.939 366.65 228.315 364.506 228.315C364.307 228.315 362.562 228.963 360.668 229.761C355.633 231.854 350.399 232.802 343.619 232.802C333.151 232.802 328.016 230.758 321.286 224.078C316.55 219.392 315.105 217.099 313.011 210.768C311.565 206.63 311.416 205.484 311.366 200.05C311.316 196.66 311.167 193.918 311.017 193.918C310.818 193.918 309.771 195.813 308.624 198.156Z" fill="#E3B37F"/>
<path d="M276.172 241.725C251.795 251.645 235.344 258.724 215.603 267.797C208.225 271.186 200.05 274.875 197.557 275.922C195.015 277.019 192.921 278.116 192.921 278.465C192.921 279.113 204.088 289.631 204.836 289.631C205.085 289.631 217.647 283.45 232.652 275.922C257.029 263.659 268.295 258.375 293.769 247.109C297.807 245.314 302.193 243.22 303.44 242.522L305.683 241.176L303.938 239.332C302.941 238.335 301.645 236.54 300.997 235.294C300.249 233.848 299.452 233.001 298.853 232.951C298.305 232.901 288.086 236.84 276.172 241.725Z" fill="#E3B37F"/>
<path d="M345.813 254.786C326.969 259.771 306.879 267.348 288.385 276.421C256.082 292.323 234.895 306.58 212.662 327.418C185.643 352.692 166.401 380.01 152.243 413.36C147.159 425.374 142.074 439.332 141.725 442.373L141.426 444.766L142.622 444.168C145.813 442.473 148.156 440.429 149.352 438.285C150.1 436.989 151.795 434.148 153.091 431.954C154.387 429.761 157.278 424.477 159.521 420.239C182.851 376.221 205.683 347.856 238.285 322.283C267.896 299.103 308.076 279.013 346.361 268.195L353.938 266.052V259.372C353.938 255.733 353.789 252.742 353.589 252.792C353.34 252.792 349.85 253.689 345.813 254.786Z" fill="#E3B37F"/>
<path d="M262.463 271.884C256.73 274.427 243.37 280.708 232.802 285.842C222.233 290.977 212.762 295.563 211.765 295.962C210.518 296.461 209.87 297.059 209.87 297.657C209.87 298.754 212.812 306.979 213.31 307.278C213.709 307.527 234.347 296.411 238.784 293.519C240.329 292.572 247.607 288.285 254.985 284.048C262.413 279.811 270.09 275.274 272.084 273.978L275.673 271.635L274.676 270.339C274.128 269.641 273.679 268.644 273.679 268.146C273.679 267.597 273.529 267.198 273.33 267.248C273.081 267.248 268.245 269.342 262.463 271.884Z" fill="#E3B37F"/>
<path d="M381.356 289.681C364.955 291.127 351.695 293.569 336.241 297.906C314.108 304.138 298.205 310.469 276.421 321.735C245.862 337.537 227.916 350.748 202.891 375.823C191.326 387.388 183.5 396.311 177.916 404.337C176.172 406.83 172.034 412.562 168.694 417.099C163.011 424.875 152.193 442.024 152.692 442.473C153.091 442.871 163.061 437.238 165.404 435.294C166.65 434.297 171.137 429.063 175.424 423.729C191.176 403.988 202.742 391.426 217.298 378.265C228.514 368.096 236.69 361.715 249.053 353.49C261.864 344.915 268.395 341.127 283.4 333.649C296.71 326.969 302.941 324.227 315.354 319.641C340.628 310.219 362.413 305.234 383.151 304.187L389.581 303.838L390.13 296.859C390.429 293.021 390.578 289.731 390.479 289.482C390.229 289.083 387.836 289.133 381.356 289.681Z" fill="#E3B37F"/>
<path d="M180.16 317.149C174.726 321.934 168.295 333.898 169.89 336.291C170.09 336.64 172.582 337.787 175.474 338.933C181.655 341.326 182.203 341.675 181.705 342.473C181.306 343.121 177.717 342.921 169.392 341.675C166.75 341.326 162.363 340.828 159.621 340.678L154.686 340.329L154.088 342.024C151.645 348.704 150.399 352.742 149.801 356.431L149.053 360.618L151.894 363.559L154.786 366.451L157.777 366.152C159.422 365.952 161.216 365.703 161.765 365.553C162.562 365.354 162.612 365.404 162.164 365.902C161.864 366.251 158.175 367.448 153.938 368.644C144.616 371.236 138.036 373.23 137.188 373.829C136.64 374.177 136.64 375.324 137.338 380.409C138.335 388.185 139.033 390.528 142.024 395.763L144.417 400L143.22 403.639C142.124 407.129 141.625 412.762 142.473 412.762C142.672 412.762 143.918 410.219 145.264 407.129C151.545 392.822 160.668 376.072 169.093 363.509C174.975 354.686 186.939 340.379 196.51 330.708L203.44 323.729L201.296 323.081C200.1 322.732 195.763 320.887 191.625 318.993C187.488 317.099 183.599 315.553 183.051 315.553C182.453 315.553 181.157 316.251 180.16 317.149Z" fill="#E3B37F"/>
</svg>
