<svg width="507" height="468" viewBox="0 0 507 468" fill="none" xmlns="http://www.w3.org/2000/svg">
<g clip-path="url(#clip0_26_490)">
<path d="M322.729 234C322.729 262.571 300.84 285.713 273.861 285.713C246.883 285.713 224.994 262.571 224.994 234C224.994 205.429 246.883 182.287 273.861 182.287C300.84 182.287 322.729 205.429 322.729 234Z" stroke="#E3B37F" stroke-width="2"/>
<path d="M268.118 220.224C275.533 219.665 281.692 220.862 281.503 229.96C281.315 236.185 278.801 240.015 273.899 240.015H268.118V220.224ZM270.191 237.861C275.784 238.499 279.367 236.584 279.367 229.96C279.367 223.336 275.596 221.9 270.191 222.379V237.861Z" fill="#E3B37F"/>
<path d="M98.753 78.8619C98.753 107.433 76.8645 130.575 49.8855 130.575C22.9066 130.575 1.01807 107.433 1.01807 78.8619C1.01807 50.2906 22.9066 27.1492 49.8855 27.1492C76.8645 27.1492 98.753 50.2906 98.753 78.8619Z" stroke="#E3B37F" stroke-width="2"/>
<path d="M55.7363 84.8771L53.9767 79.1312H46.8753L45.1157 84.8771H42.9161L49.2634 65.0858H51.6514L57.873 84.8771H55.7363ZM53.3482 76.9765L50.3946 67.1607C49.6404 70.7519 48.4464 73.7046 47.5037 76.9765H53.3482Z" fill="#E3B37F"/>
<path d="M49.9059 133.16L49.967 136.522L50.1706 140.865L50.5167 144.938L50.9545 148.777L51.5043 152.397L52.1355 155.888L52.8481 159.172L53.6626 162.339L54.5483 165.377L55.5155 168.312L56.5641 171.156L57.7043 173.91L58.926 176.599L60.2495 179.223L61.6545 181.809L63.1612 184.356L64.7901 186.851L66.5514 189.307L68.4348 191.764L70.4709 194.22L72.6904 196.638L75.093 199.068L77.7095 201.486L80.5906 203.916L83.7466 206.347L87.2691 208.803L91.1786 211.259L95.5563 213.716L100.494 216.211L106.124 218.706L112.619 221.188L120.183 223.645L129.142 226.062L139.965 228.389L153.485 230.535L171.27 232.41L197.883 233.754L205.111 233.845" stroke="#E3B37F" stroke-width="2" stroke-linejoin="round"/>
<path d="M49.8652 131.867H50.415L50.8832 131.829L50.9036 133.173L48.9184 133.238L48.8878 131.816L49.8652 131.867Z" fill="#5E5E5E" stroke="#5E5E5E" stroke-width="0.05"/>
<path d="M220.677 233.961L206.119 239.779L206.2 227.807L220.677 233.961Z" fill="#E3B37F" stroke="#E3B37F" stroke-width="2"/>
<path d="M98.753 389.138C98.753 417.709 76.8645 440.851 49.8855 440.851C22.9066 440.851 1.01807 417.709 1.01807 389.138C1.01807 360.567 22.9066 337.425 49.8855 337.425C76.8645 337.425 98.753 360.567 98.753 389.138Z" stroke="#E3B37F" stroke-width="2"/>
<path d="M44.7386 395.153V375.362H56.4905V377.597H46.8125V383.901H55.862V386.056H46.8125V392.999H56.9932V395.153H44.7386Z" fill="#E3B37F"/>
<path d="M465.259 53.0056C465.259 81.5768 443.37 104.718 416.392 104.718C389.413 104.718 367.524 81.5768 367.524 53.0056C367.524 24.4343 389.413 1.29285 416.392 1.29285C443.37 1.29285 465.259 24.4343 465.259 53.0056Z" stroke="#E3B37F" stroke-width="2"/>
<path d="M422.085 44.7359C421.457 42.5014 419.886 41.1447 417.498 41.1447C413.79 41.1447 412.03 44.3369 412.03 49.0453C412.03 53.8335 413.853 57.1054 417.623 57.1054C420.326 57.1054 421.52 55.1902 422.525 52.9557L424.222 54.0729C423.091 57.1054 421.017 59.3399 417.498 59.3399C412.47 59.3399 410.145 55.3498 409.893 49.0453C409.516 40.7457 416.115 36.8353 421.645 40.1871C422.839 40.9053 423.593 42.262 424.096 43.858" fill="#E3B37F"/>
<path d="M505.982 414.994C505.982 443.566 484.093 466.707 457.114 466.707C430.136 466.707 408.247 443.566 408.247 414.994C408.247 386.423 430.136 363.282 457.114 363.282C484.093 363.282 505.982 386.423 505.982 414.994Z" stroke="#E3B37F" stroke-width="2"/>
<path d="M460.137 410.555C462.337 410.954 463.971 412.391 463.971 415.423C463.971 422.366 457.309 420.85 451.968 421.01V401.218C456.744 401.458 463.091 399.862 463.091 406.007C463.091 408.64 461.897 409.997 460.137 410.555ZM454.041 409.678C457.184 409.598 460.954 410.396 460.954 406.326C460.954 402.575 456.995 403.453 454.041 403.373V409.678ZM454.041 418.855C457.498 418.695 461.834 419.972 461.834 415.264C461.834 410.795 457.435 411.912 454.041 411.753V418.855Z" fill="#E3B37F"/>
<path d="M416.412 107.304L416.677 124.085L417.43 139.275L418.509 152.423L419.873 164.162L421.502 174.97L423.406 185.313L425.687 195.733L428.639 207.213L433.678 224.304L444.847 260.787L447.799 272.267L450.08 282.688L452.014 293.03L453.622 303.838L454.987 315.577L456.066 328.725L456.524 338.085" stroke="#E3B37F" stroke-width="2" stroke-linejoin="round"/>
<path d="M416.371 106.011H416.921L417.379 105.972L417.41 107.317L415.424 107.381L415.394 105.959L416.371 106.011Z" fill="#5E5E5E" stroke="#5E5E5E" stroke-width="0.05"/>
<path d="M457.013 357.8L451.851 339.572L461.289 339.184L457.013 357.8Z" fill="#E3B37F" stroke="#E3B37F" stroke-width="2"/>
<path d="M406.211 414.956L405.722 414.917L404.989 414.813L404.276 414.684L403.564 414.503L402.851 414.296L402.139 414.038L401.426 413.753L400.713 413.417L400.001 413.029L399.257 412.59L398.514 412.099L397.751 411.543L396.957 410.896L396.142 410.198L395.328 409.384L394.462 408.479L393.546 407.444L392.609 406.281L391.591 404.911L390.543 403.359L389.392 401.51L388.15 399.351L386.806 396.766L385.32 393.663L383.65 389.785L381.736 384.898L379.497 378.459L376.687 369.436L372.716 354.853L354.248 279.559L351.449 270.535L349.209 264.097L347.275 259.21L345.615 255.332L344.129 252.229L342.785 249.643L341.563 247.484L340.403 245.648L339.843 244.834" stroke="#E3B37F" stroke-width="2" stroke-linejoin="round"/>
<path d="M407.28 413.74L407.229 414.969V415.395L407.27 416.274L406.15 416.236L406.201 413.715L407.28 413.74Z" fill="#5E5E5E" stroke="#5E5E5E" stroke-width="0.05"/>
<path d="M326.659 235.939L341.706 239.275L337.298 249.876L326.659 235.939Z" fill="#E3B37F" stroke="#E3B37F" stroke-width="2"/>
<path d="M100.789 389.112L140.881 388.259L162.026 386.604L177.379 384.574L189.433 382.325L199.257 379.946L207.463 377.49L214.457 375.034L220.494 372.538L225.768 370.056L230.41 367.574L234.543 365.118L238.239 362.661L241.578 360.205L244.602 357.787L247.351 355.357L249.865 352.939L252.166 350.522L254.304 348.091L256.259 345.635L258.092 343.178L259.771 340.722L261.349 338.188L262.805 335.603L264.169 333.017L265.432 330.354L266.623 327.639L267.722 324.833L268.741 321.95L269.657 318.977L270.512 315.874L271.265 312.642L271.673 310.703" stroke="#E3B37F" stroke-width="2" stroke-linejoin="round"/>
<path d="M100.83 390.379L99.71 390.405L99.7711 389.164V388.737L99.7304 387.871L100.789 387.845L100.83 390.379Z" fill="#5E5E5E" stroke="#5E5E5E" stroke-width="0.05"/>
<path d="M273.475 291.143L276.447 310.186L267.081 308.764L273.475 291.143Z" fill="#E3B37F" stroke="#E3B37F" stroke-width="2"/>
<path d="M408.247 215.901C408.247 213.843 408.891 211.87 410.036 210.416C411.182 208.961 412.735 208.144 414.355 208.144H459.151C460.771 208.144 462.324 208.961 463.47 210.416C464.615 211.87 465.259 213.843 465.259 215.901V239.171C465.259 241.229 464.615 243.202 463.47 244.656C462.324 246.111 460.771 246.928 459.151 246.928H414.355C412.735 246.928 411.182 246.111 410.036 244.656C408.891 243.202 408.247 241.229 408.247 239.171V215.901Z" fill="#262B2C"/>
<path d="M425.881 239.207V237.052H429.903V221.89L426.384 225.002V222.688L430.029 219.416H431.851V237.052H435.685V239.207H425.881Z" fill="#E3B37F"/>
<path d="M444.671 229.072C446.745 229.551 448.316 230.668 448.316 233.78C448.316 240.803 439.581 241.122 438.01 236.095C437.821 235.456 437.696 234.818 437.633 234.1L439.644 233.86C440.021 236.015 440.963 237.372 443.037 237.372C445.048 237.372 446.305 236.175 446.305 233.701C446.305 230.668 444.043 230.03 441.341 230.269V228.035C443.791 228.114 445.865 227.715 445.865 224.683C445.865 222.528 444.797 221.251 442.974 221.251C441.215 221.251 440.021 222.448 439.895 224.523L437.884 224.284C438.261 220.932 440.084 219.256 442.974 219.176C445.991 219.097 447.939 220.852 447.939 224.364C447.939 227.237 446.619 228.513 444.671 229.072Z" fill="#E3B37F"/>
<path d="M334.946 306.398C334.946 304.341 335.589 302.368 336.735 300.913C337.88 299.458 339.434 298.641 341.054 298.641H385.849C387.469 298.641 389.023 299.458 390.169 300.913C391.314 302.368 391.958 304.341 391.958 306.398V329.668C391.958 331.726 391.314 333.699 390.169 335.153C389.023 336.608 387.469 337.425 385.849 337.425H341.054C339.434 337.425 337.88 336.608 336.735 335.153C335.589 333.699 334.946 331.726 334.946 329.668V306.398Z" fill="#262B2C"/>
<path d="M357.227 309.674C362.38 309.115 363.071 316.617 359.929 320.208L356.033 324.597C355.342 325.475 354.587 326.353 354.21 327.55H362.317V329.704H352.011C352.137 321.804 360.055 322.203 360.055 315.18C360.055 312.946 359.049 311.749 357.227 311.749C355.404 311.749 354.336 312.946 354.148 315.021L352.137 314.781C352.514 311.509 354.273 309.993 357.227 309.674Z" fill="#E3B37F"/>
<path d="M365.145 329.704V327.55H369.167V312.387L365.648 315.499V313.185L369.293 309.913H371.115V327.55H374.949V329.704H365.145Z" fill="#E3B37F"/>
<path d="M186.307 363.204C186.307 361.147 186.951 359.174 188.096 357.719C189.242 356.265 190.796 355.447 192.416 355.447H218.886C220.506 355.447 222.059 356.265 223.205 357.719C224.35 359.174 224.994 361.147 224.994 363.204V385.182C224.994 387.239 224.35 389.212 223.205 390.667C222.059 392.122 220.506 392.939 218.886 392.939H192.416C190.796 392.939 189.242 392.122 188.096 390.667C186.951 389.212 186.307 387.239 186.307 385.182V363.204Z" fill="#262B2C"/>
<path d="M195.28 386.513V384.359H199.302V369.196L195.783 372.308V369.994L199.428 366.722H201.25V384.359H205.084V386.513H195.28Z" fill="#E3B37F"/>
<path d="M210.174 386.513C210.363 378.692 213.191 373.824 215.704 368.877H207.283V366.722H217.59V368.797C215.139 373.984 212.311 378.453 212.248 386.513H210.174Z" fill="#E3B37F"/>
<path d="M98.753 204.265C98.753 202.208 99.3966 200.235 100.542 198.78C101.688 197.326 103.241 196.508 104.861 196.508H136.483C138.103 196.508 139.657 197.326 140.802 198.78C141.948 200.235 142.591 202.208 142.591 204.265V228.829C142.591 230.886 141.948 232.859 140.802 234.314C139.657 235.768 138.103 236.586 136.483 236.586H104.861C103.241 236.586 101.688 235.768 100.542 234.314C99.3966 232.859 98.753 230.886 98.753 228.829V204.265Z" fill="#262B2C"/>
<path d="M110.279 227.643V225.488H114.301V210.325L110.781 213.438V211.124L114.426 207.852H116.249V225.488H120.082V227.643H110.279Z" fill="#E3B37F"/>
<path d="M124.544 216.311C127.561 213.518 133.154 215.672 132.777 221.179C133.468 229.079 123.099 230.276 122.03 223.254L124.041 222.934C124.481 224.77 125.424 225.887 127.309 225.887C129.509 225.807 130.514 224.131 130.703 221.259C130.954 216.869 126.115 216.071 124.481 218.545H122.533L123.036 207.852H131.897V210.006H124.858" fill="#E3B37F"/>
</g>
<defs>
<clipPath id="clip0_26_490">
<rect width="507" height="468" fill="white"/>
</clipPath>
</defs>
</svg>
