<svg width="24" height="24" viewBox="0 0 24 24" fill="none" xmlns="http://www.w3.org/2000/svg">
<path d="M9 11C9 10.4477 9.44771 10 10 10C10.5523 10 11 10.4477 11 11V17C11 17.5523 10.5523 18 10 18C9.44771 18 9 17.5523 9 17V11Z" fill="#F85149"/>
<path d="M14 10C13.4477 10 13 10.4477 13 11V17C13 17.5523 13.4477 18 14 18C14.5523 18 15 17.5523 15 17V11C15 10.4477 14.5523 10 14 10Z" fill="#F85149"/>
<path fill-rule="evenodd" clip-rule="evenodd" d="M8.53101 1C5.52352 1 3.19659 3.63591 3.56962 6.62017L5.28861 20.3721C5.47627 21.8734 6.75248 23 8.26545 23H15.7343C17.2473 23 18.5235 21.8734 18.7112 20.3721L20.4302 6.62017C20.8032 3.63591 18.4763 1 15.4688 1H8.53101ZM5.70136 5C6.11054 3.8455 7.21163 3 8.53101 3H15.4688C16.7882 3 17.8892 3.8455 18.2984 5H5.70136ZM5.63267 7L7.27317 20.124C7.33572 20.6245 7.76112 21 8.26545 21H15.7343C16.2387 21 16.6641 20.6245 16.7266 20.124L18.3671 7H5.63267Z" fill="#F85149"/>
</svg>
